<svg xmlns="http://www.w3.org/2000/svg" xmlns:xlink="http://www.w3.org/1999/xlink" width="500" zoomAndPan="magnify" viewBox="0 0 375 374.999991" height="500" preserveAspectRatio="xMidYMid meet" version="1.0"><defs><g/><clipPath id="ddeb10a3c9"><path d="M 2.757812 2.757812 L 372.242188 2.757812 L 372.242188 372.242188 L 2.757812 372.242188 Z M 2.757812 2.757812 " clip-rule="nonzero"/></clipPath><clipPath id="7e2d4c0dc4"><path d="M 187.5 2.757812 C 85.46875 2.757812 2.757812 85.46875 2.757812 187.5 C 2.757812 289.53125 85.46875 372.242188 187.5 372.242188 C 289.53125 372.242188 372.242188 289.53125 372.242188 187.5 C 372.242188 85.46875 289.53125 2.757812 187.5 2.757812 Z M 187.5 2.757812 " clip-rule="nonzero"/></clipPath><clipPath id="f64a8ac4b1"><path d="M 2.757812 2.757812 L 372.507812 2.757812 L 372.507812 372.507812 L 2.757812 372.507812 Z M 2.757812 2.757812 " clip-rule="nonzero"/></clipPath><clipPath id="9dfee8daee"><path d="M 11.355469 11.355469 L 363.855469 11.355469 L 363.855469 363.855469 L 11.355469 363.855469 Z M 11.355469 11.355469 " clip-rule="nonzero"/></clipPath><clipPath id="b92fc2645c"><path d="M 42.621094 84.355469 L 67.371094 84.355469 L 67.371094 109.105469 L 42.621094 109.105469 Z M 42.621094 84.355469 " clip-rule="nonzero"/></clipPath><clipPath id="338de4b0f3"><path d="M 67.8125 75.621094 L 259.089844 75.621094 L 259.089844 264.960938 L 67.8125 264.960938 Z M 67.8125 75.621094 " clip-rule="nonzero"/></clipPath><clipPath id="97cf88a415"><path d="M 89.726562 126 L 258.292969 126 L 258.292969 264.960938 L 89.726562 264.960938 Z M 89.726562 126 " clip-rule="nonzero"/></clipPath><clipPath id="13634245c3"><path d="M 72 75.300781 L 257 75.300781 L 257 263 L 72 263 Z M 72 75.300781 " clip-rule="nonzero"/></clipPath><clipPath id="e67a84b8b2"><path d="M 67.144531 83 L 260 83 L 260 263 L 67.144531 263 Z M 67.144531 83 " clip-rule="nonzero"/></clipPath><clipPath id="dacb6daad2"><path d="M 131 117 L 267.394531 117 L 267.394531 264 L 131 264 Z M 131 117 " clip-rule="nonzero"/></clipPath><clipPath id="b4a27a87db"><path d="M 107 72 L 273 72 L 273 326 L 107 326 Z M 107 72 " clip-rule="nonzero"/></clipPath><clipPath id="b480c04f85"><path d="M 55.636719 100.867188 L 178.691406 32.027344 L 326.253906 295.8125 L 203.199219 364.648438 Z M 55.636719 100.867188 " clip-rule="nonzero"/></clipPath><clipPath id="b8c1b1ab7c"><path d="M 55.636719 100.867188 L 178.691406 32.027344 L 326.253906 295.8125 L 203.199219 364.648438 Z M 55.636719 100.867188 " clip-rule="nonzero"/></clipPath><clipPath id="3b6b994273"><path d="M 112 80 L 268 80 L 268 318 L 112 318 Z M 112 80 " clip-rule="nonzero"/></clipPath><clipPath id="da235791c9"><path d="M 64.351562 107.132812 L 179.550781 42.691406 L 317.589844 289.453125 L 202.390625 353.898438 Z M 64.351562 107.132812 " clip-rule="nonzero"/></clipPath><clipPath id="d2770365ce"><path d="M 64.351562 107.132812 L 179.550781 42.691406 L 317.589844 289.453125 L 202.390625 353.898438 Z M 64.351562 107.132812 " clip-rule="nonzero"/></clipPath><clipPath id="ba1b3ac816"><path d="M 305.832031 84.355469 L 330.582031 84.355469 L 330.582031 109.105469 L 305.832031 109.105469 Z M 305.832031 84.355469 " clip-rule="nonzero"/></clipPath></defs><g clip-path="url(#ddeb10a3c9)"><g clip-path="url(#7e2d4c0dc4)"><path fill="#f8b214" d="M 2.757812 2.757812 L 372.242188 2.757812 L 372.242188 372.242188 L 2.757812 372.242188 Z M 2.757812 2.757812 " fill-opacity="1" fill-rule="nonzero"/></g></g><g clip-path="url(#f64a8ac4b1)"><path stroke-linecap="butt" transform="matrix(0.739204, 0.000000000000000092, -0.000000000000000092, 0.739204, 2.757656, 2.831576)" fill="none" stroke-linejoin="miter" d="M 499.692893 250.000204 C 499.692893 254.085044 499.59249 258.164599 499.391682 262.244154 C 499.190875 266.318425 498.889665 270.392696 498.48805 274.456398 C 498.09172 278.5201 497.589703 282.567949 496.992566 286.610514 C 496.390144 290.647794 495.692604 294.669221 494.89466 298.674794 C 494.096716 302.680368 493.203652 306.664804 492.210185 310.622818 C 491.216719 314.586117 490.128133 318.517709 488.944427 322.428164 C 487.760722 326.333334 486.476614 330.206798 485.10267 334.053839 C 483.723442 337.900881 482.254379 341.705648 480.690198 345.478708 C 479.1313 349.251768 477.471999 352.982553 475.728148 356.676347 C 473.979012 360.364857 472.145326 364.011092 470.221805 367.615051 C 468.293 371.213727 466.279644 374.764842 464.181738 378.268398 C 462.083832 381.771954 459.896091 385.217381 457.629085 388.615249 C 455.356793 392.007833 453.005236 395.347573 450.574413 398.629184 C 448.138306 401.905511 445.628217 405.123709 443.038861 408.278495 C 440.444222 411.438565 437.775601 414.529937 435.032998 417.552613 C 432.290396 420.580573 429.473812 423.534552 426.58853 426.425118 C 423.697965 429.310399 420.738702 432.126983 417.716026 434.869586 C 414.688066 437.606904 411.596693 440.275525 408.436623 442.86488 C 405.281837 445.454235 402.063639 447.969608 398.782028 450.400432 C 395.500416 452.831255 392.160677 455.182812 388.762809 457.449819 C 385.370225 459.72211 381.919513 461.904566 378.415958 464.002472 C 374.912402 466.100378 371.356002 468.113734 367.752042 470.037255 C 364.153367 471.96606 360.507133 473.799746 356.813338 475.543597 C 353.119544 477.292733 349.383475 478.94675 345.610414 480.505647 C 341.837354 482.069829 338.027303 483.538892 334.180261 484.912835 C 330.338504 486.292063 326.459756 487.570887 322.549301 488.754593 C 318.638847 489.943582 314.707255 491.032168 310.743956 492.020351 C 306.780657 493.013817 302.796221 493.906881 298.790648 494.704825 C 294.785074 495.502769 290.758363 496.20031 286.721082 496.797447 C 282.678518 497.399868 278.625385 497.896601 274.561682 498.298216 C 270.49798 498.69983 266.423709 499.00104 262.344154 499.201848 C 258.264599 499.39737 254.179759 499.497774 250.094919 499.497774 C 246.01008 499.497774 241.930524 499.39737 237.850969 499.201848 C 233.771414 499.00104 229.697143 498.69983 225.633441 498.298216 C 221.564454 497.896601 217.511321 497.399868 213.474041 496.797447 C 209.431476 496.20031 205.410049 495.502769 201.404476 494.704825 C 197.393618 493.906881 193.409181 493.013817 189.451167 492.020351 C 185.487869 491.032168 181.550992 489.943582 177.640538 488.754593 C 173.735367 487.570887 169.856619 486.292063 166.009577 484.912835 C 162.162536 483.538892 158.352485 482.069829 154.579424 480.505647 C 150.806364 478.94675 147.070295 477.292733 143.381785 475.543597 C 139.687991 473.799746 136.041756 471.96606 132.437797 470.037255 C 128.833837 468.113734 125.282722 466.100378 121.779166 464.002472 C 118.27561 461.904566 114.824898 459.72211 111.42703 457.449819 C 108.029162 455.182812 104.694707 452.831255 101.413096 450.400432 C 98.131484 447.969608 94.913286 445.454235 91.753216 442.86488 C 88.59843 440.275525 85.501773 437.606904 82.479097 434.869586 C 79.451137 432.126983 76.491874 429.310399 73.606593 426.425118 C 70.716027 423.534552 67.899443 420.580573 65.15684 417.552613 C 62.414238 414.529937 59.745617 411.438565 57.156262 408.278495 C 54.566907 405.123709 52.051533 401.905511 49.62071 398.629184 C 47.184603 395.347573 44.833046 392.007833 42.566039 388.615249 C 40.293748 385.217381 38.111291 381.771954 36.008101 378.268398 C 33.910195 374.764842 31.896839 371.213727 29.973318 367.615051 C 28.044513 364.011092 26.210827 360.364857 24.461691 356.676347 C 22.71784 352.982553 21.063823 349.251768 19.499641 345.478708 C 17.935459 341.705648 16.466397 337.900881 15.092453 334.053839 C 13.713225 330.206798 12.434401 326.333334 11.245411 322.428164 C 10.061706 318.517709 8.97312 314.586117 7.979653 310.622818 C 6.986187 306.664804 6.093123 302.680368 5.295179 298.674794 C 4.497235 294.669221 3.799695 290.647794 3.202558 286.610514 C 2.600136 282.567949 2.103403 278.5201 1.701789 274.456398 C 1.300174 270.392696 0.998964 266.318425 0.798156 262.244154 C 0.602634 258.164599 0.50223 254.085044 0.50223 250.000204 C 0.50223 245.915364 0.602634 241.835809 0.798156 237.756254 C 0.998964 233.676698 1.300174 229.607712 1.701789 225.54401 C 2.103403 221.480307 2.600136 217.427174 3.202558 213.389894 C 3.799695 209.352614 4.497235 205.331187 5.295179 201.325613 C 6.093123 197.32004 6.986187 193.335603 7.979653 189.377589 C 8.97312 185.414291 10.061706 181.482699 11.245411 177.572244 C 12.434401 173.667074 13.713225 169.788326 15.092453 165.946568 C 16.466397 162.099526 17.935459 158.29476 19.499641 154.5217 C 21.063823 150.748639 22.71784 147.017854 24.461691 143.32406 C 26.210827 139.63555 28.044513 135.989316 29.973318 132.385356 C 31.896839 128.786681 33.910195 125.235566 36.008101 121.73201 C 38.111291 118.228454 40.293748 114.777742 42.566039 111.385158 C 44.833046 107.992575 47.184603 104.652835 49.62071 101.371224 C 52.051533 98.094897 54.566907 94.876699 57.156262 91.716629 C 59.745617 88.561843 62.414238 85.47047 65.15684 82.447794 C 67.899443 79.419834 70.716027 76.465856 73.606593 73.57529 C 76.491874 70.690009 79.451137 67.873425 82.479097 65.130822 C 85.501773 62.388219 88.59843 59.724883 91.753216 57.135528 C 94.913286 54.540888 98.131484 52.030799 101.413096 49.599976 C 104.694707 47.169153 108.029162 44.817596 111.42703 42.550589 C 114.824898 40.278298 118.27561 38.095842 121.779166 35.997935 C 125.282722 33.900029 128.833837 31.886674 132.437797 29.963153 C 136.041756 28.034348 139.687991 26.200661 143.381785 24.45681 C 147.070295 22.707674 150.806364 21.053658 154.579424 19.489476 C 158.352485 17.930579 162.162536 16.461516 166.009577 15.082288 C 169.856619 13.708344 173.735367 12.42952 177.640538 11.245815 C 181.550992 10.056825 185.487869 8.968239 189.451167 7.974773 C 193.409181 6.98659 197.393618 6.088242 201.404476 5.295583 C 205.410049 4.497639 209.431476 3.800098 213.474041 3.202961 C 217.511321 2.60054 221.564454 2.103806 225.633441 1.702192 C 229.697143 1.300578 233.771414 0.999367 237.850969 0.79856 C 241.930524 0.597753 246.01008 0.502634 250.094919 0.502634 C 254.179759 0.502634 258.264599 0.597753 262.344154 0.79856 C 266.423709 0.999367 270.49798 1.300578 274.561682 1.702192 C 278.625385 2.103806 282.678518 2.60054 286.721082 3.202961 C 290.758363 3.800098 294.785074 4.497639 298.790648 5.295583 C 302.796221 6.088242 306.780657 6.98659 310.743956 7.974773 C 314.707255 8.968239 318.638847 10.056825 322.549301 11.245815 C 326.459756 12.42952 330.338504 13.708344 334.180261 15.082288 C 338.027303 16.461516 341.837354 17.930579 345.610414 19.489476 C 349.383475 21.053658 353.119544 22.707674 356.813338 24.45681 C 360.507133 26.200661 364.153367 28.034348 367.757327 29.963153 C 371.356002 31.886674 374.912402 33.900029 378.415958 35.997935 C 381.919513 38.095842 385.370225 40.278298 388.762809 42.550589 C 392.160677 44.817596 395.500416 47.169153 398.782028 49.599976 C 402.063639 52.030799 405.281837 54.540888 408.436623 57.135528 C 411.596693 59.724883 414.688066 62.388219 417.716026 65.130822 C 420.738702 67.873425 423.697965 70.690009 426.58853 73.57529 C 429.473812 76.465856 432.290396 79.419834 435.032998 82.447794 C 437.775601 85.47047 440.444222 88.561843 443.038861 91.716629 C 445.628217 94.876699 448.138306 98.094897 450.574413 101.371224 C 453.005236 104.652835 455.356793 107.992575 457.629085 111.385158 C 459.896091 114.777742 462.083832 118.228454 464.181738 121.73201 C 466.279644 125.235566 468.293 128.786681 470.221805 132.385356 C 472.145326 135.989316 473.979012 139.63555 475.728148 143.32406 C 477.471999 147.017854 479.1313 150.748639 480.690198 154.5217 C 482.254379 158.29476 483.723442 162.099526 485.10267 165.946568 C 486.476614 169.788326 487.760722 173.667074 488.944427 177.572244 C 490.128133 181.482699 491.216719 185.414291 492.210185 189.377589 C 493.203652 193.335603 494.096716 197.32004 494.89466 201.325613 C 495.692604 205.331187 496.390144 209.352614 496.992566 213.389894 C 497.589703 217.427174 498.09172 221.480307 498.48805 225.54401 C 498.889665 229.607712 499.190875 233.676698 499.391682 237.756254 C 499.59249 241.835809 499.692893 245.915364 499.692893 250.000204 Z M 499.692893 250.000204 " stroke="#000000" stroke-width="1" stroke-opacity="1" stroke-miterlimit="10"/></g><g clip-path="url(#9dfee8daee)"><path stroke-linecap="butt" transform="matrix(0.704718, 0.000000000000000087, -0.000000000000000087, 0.704718, 11.355039, 11.425511)" fill="none" stroke-linejoin="miter" d="M 499.690716 250.000641 C 499.690716 254.08583 499.590943 258.165476 499.391395 262.245122 C 499.191847 266.319225 498.892525 270.393328 498.487886 274.456344 C 498.08879 278.519361 497.589921 282.571292 496.991277 286.606594 C 496.392633 290.647439 495.694216 294.671655 494.896024 298.673699 C 494.097832 302.681286 493.20541 306.661158 492.213213 310.624401 C 491.221017 314.582101 490.129046 318.517629 488.942845 322.425442 C 487.756644 326.333255 486.476211 330.20781 485.101548 334.05465 C 483.726885 337.895947 482.25799 341.709529 480.694865 345.478767 C 479.13174 349.253548 477.474384 352.983985 475.72834 356.675621 C 473.982296 360.367257 472.147564 364.014549 470.218601 367.611954 C 468.295181 371.214903 466.283073 374.767964 464.182277 378.271138 C 462.081481 381.768769 459.89754 385.222056 457.624911 388.614371 C 455.357825 392.012228 453.007595 395.349112 450.574219 398.625023 C 448.140843 401.906478 445.629865 405.126959 443.035743 408.280924 C 440.447163 411.43489 437.775438 414.527882 435.031655 417.554359 C 432.293414 420.580835 429.477572 423.535253 426.58967 426.423154 C 423.696226 429.311056 420.741808 432.126898 417.715332 434.865139 C 414.688855 437.608922 411.595863 440.275104 408.436355 442.863684 C 405.282389 445.457806 402.061908 447.968784 398.780454 450.40216 C 395.498999 452.829992 392.162115 455.185766 388.764258 457.452852 C 385.366401 459.719938 381.918656 461.903879 378.415482 464.004675 C 374.912308 466.099928 371.359247 468.112035 367.756299 470.040998 C 364.15335 471.964419 360.506058 473.799151 356.814422 475.545195 C 353.117243 477.291239 349.386806 478.943052 345.612025 480.506177 C 341.837244 482.069302 338.029205 483.538197 334.182365 484.91286 C 330.335525 486.293066 326.46097 487.573498 322.547614 488.754157 C 318.639801 489.940358 314.704273 491.032329 310.74103 492.024525 C 306.777787 493.016722 302.797915 493.909144 298.790328 494.707336 C 294.782741 495.499984 290.758525 496.198402 286.71768 496.797046 C 282.676836 497.401232 278.624905 497.900102 274.561888 498.299198 C 270.493328 498.698294 266.424768 498.997616 262.345122 499.197163 C 258.265476 499.402254 254.180287 499.502028 250.095098 499.502028 C 246.009909 499.502028 241.930264 499.402254 237.850618 499.197163 C 233.770972 498.997616 229.696869 498.698294 225.633852 498.299198 C 221.565292 497.900102 217.513361 497.401232 213.472516 496.797046 C 209.431671 496.198402 205.407455 495.499984 201.399868 494.707336 C 197.397825 493.909144 193.41241 493.016722 189.449167 492.024525 C 185.485924 491.032329 181.550396 489.940358 177.642583 488.754157 C 173.73477 487.573498 169.854672 486.293066 166.007832 484.91286 C 162.160992 483.538197 158.352953 482.069302 154.578172 480.506177 C 150.803391 478.943052 147.072954 477.291239 143.381317 475.545195 C 139.689681 473.799151 136.042389 471.964419 132.439441 470.040998 C 128.836493 468.112035 125.283432 466.099928 121.780258 464.004675 C 118.277083 461.903879 114.823796 459.719938 111.425939 457.452852 C 108.033625 455.185766 104.691197 452.829992 101.409743 450.40216 C 98.128289 447.968784 94.91335 445.457806 91.753842 442.863684 C 88.594334 440.275104 85.506884 437.608922 82.474865 434.865139 C 79.448388 432.126898 76.493971 429.311056 73.606069 426.423154 C 70.718168 423.535253 67.902325 420.580835 65.158542 417.554359 C 62.414758 414.527882 59.748577 411.43489 57.154454 408.280924 C 54.565874 405.126959 52.049354 401.906478 49.615978 398.625023 C 47.182602 395.349112 44.832371 392.012228 42.565285 388.614371 C 40.292657 385.222056 38.108716 381.768769 36.00792 378.271138 C 33.912667 374.767964 31.895016 371.214903 29.971596 367.611954 C 28.048176 364.014549 26.207901 360.367257 24.461857 356.675621 C 22.715813 352.983985 21.064 349.253548 19.500874 345.478767 C 17.937749 341.709529 16.468855 337.895947 15.088649 334.05465 C 13.713985 330.20781 12.433553 326.333255 11.247352 322.425442 C 10.06115 318.517629 8.974723 314.582101 7.982526 310.624401 C 6.984787 306.661158 6.092364 302.681286 5.294173 298.673699 C 4.501524 294.671655 3.803106 290.647439 3.19892 286.606594 C 2.600276 282.571292 2.101406 278.519361 1.702311 274.456344 C 1.303215 270.393328 0.99835 266.319225 0.798802 262.245122 C 0.599254 258.165476 0.49948 254.08583 0.49948 250.000641 C 0.49948 245.915452 0.599254 241.835806 0.798802 237.75616 C 0.99835 233.676515 1.303215 229.607955 1.702311 225.544938 C 2.101406 221.481921 2.600276 217.42999 3.19892 213.389145 C 3.803106 209.353843 4.501524 205.329627 5.294173 201.327583 C 6.092364 197.319996 6.984787 193.334581 7.982526 189.376881 C 8.974723 185.413638 10.06115 181.483653 11.247352 177.57584 C 12.433553 173.668027 13.713985 169.78793 15.088649 165.946632 C 16.468855 162.099792 17.937749 158.291753 19.500874 154.522515 C 21.064 150.747734 22.715813 147.017297 24.461857 143.325661 C 26.207901 139.634025 28.048176 135.986733 29.971596 132.383785 C 31.895016 128.78638 33.912667 125.233319 36.00792 121.730144 C 38.108716 118.22697 40.292657 114.779226 42.565285 111.386912 C 44.832371 107.989054 47.182602 104.65217 49.615978 101.370716 C 52.049354 98.094805 54.565874 94.874323 57.154454 91.720358 C 59.748577 88.560849 62.414758 85.4734 65.158542 82.446924 C 67.902325 79.420447 70.718168 76.46603 73.606069 73.578128 C 76.493971 70.690227 79.448388 67.874384 82.474865 65.130601 C 85.506884 62.39236 88.594334 59.726178 91.753842 57.132056 C 94.91335 54.543476 98.128289 52.032498 101.409743 49.599123 C 104.691197 47.165747 108.033625 44.815516 111.425939 42.54843 C 114.823796 40.281344 118.277083 38.097403 121.780258 35.996608 C 125.283432 33.895812 128.836493 31.883704 132.439441 29.960284 C 136.042389 28.036864 139.689681 26.202132 143.381317 24.456088 C 147.072954 22.710043 150.803391 21.052687 154.578172 19.489562 C 158.352953 17.93198 162.160992 16.463086 166.007832 15.082879 C 169.854672 13.708216 173.73477 12.427784 177.642583 11.241582 C 181.550396 10.055381 185.485924 8.968954 189.449167 7.976757 C 193.41241 6.984561 197.397825 6.092138 201.399868 5.293946 C 205.407455 4.495755 209.431671 3.797337 213.472516 3.198694 C 217.513361 2.60005 221.565292 2.10118 225.633852 1.702084 C 229.696869 1.302988 233.770972 0.998124 237.850618 0.798576 C 241.930264 0.599028 246.009909 0.499254 250.095098 0.499254 C 254.180287 0.499254 258.265476 0.599028 262.345122 0.798576 C 266.424768 0.998124 270.493328 1.302988 274.561888 1.702084 C 278.624905 2.10118 282.676836 2.60005 286.71768 3.198694 C 290.758525 3.797337 294.782741 4.495755 298.790328 5.293946 C 302.797915 6.092138 306.777787 6.984561 310.74103 7.976757 C 314.704273 8.968954 318.639801 10.055381 322.547614 11.241582 C 326.46097 12.427784 330.335525 13.708216 334.182365 15.082879 C 338.029205 16.463086 341.837244 17.93198 345.612025 19.489562 C 349.386806 21.052687 353.117243 22.710043 356.814422 24.456088 C 360.506058 26.202132 364.15335 28.036864 367.756299 29.960284 C 371.359247 31.883704 374.912308 33.895812 378.415482 35.996608 C 381.918656 38.097403 385.366401 40.281344 388.764258 42.54843 C 392.162115 44.815516 395.498999 47.165747 398.780454 49.599123 C 402.061908 52.032498 405.282389 54.543476 408.436355 57.132056 C 411.595863 59.726178 414.688855 62.39236 417.715332 65.130601 C 420.741808 67.874384 423.696226 70.690227 426.58967 73.578128 C 429.477572 76.46603 432.293414 79.420447 435.031655 82.446924 C 437.775438 85.4734 440.447163 88.560849 443.035743 91.720358 C 445.629865 94.874323 448.140843 98.094805 450.574219 101.370716 C 453.007595 104.65217 455.357825 107.989054 457.624911 111.386912 C 459.89754 114.779226 462.081481 118.22697 464.182277 121.730144 C 466.283073 125.233319 468.295181 128.78638 470.218601 132.383785 C 472.147564 135.986733 473.982296 139.634025 475.72834 143.325661 C 477.474384 147.017297 479.13174 150.747734 480.694865 154.522515 C 482.25799 158.291753 483.726885 162.099792 485.101548 165.946632 C 486.476211 169.78793 487.756644 173.668027 488.942845 177.57584 C 490.129046 181.483653 491.221017 185.413638 492.213213 189.376881 C 493.20541 193.334581 494.097832 197.319996 494.896024 201.327583 C 495.694216 205.329627 496.392633 209.353843 496.991277 213.389145 C 497.589921 217.42999 498.08879 221.481921 498.487886 225.544938 C 498.892525 229.607955 499.191847 233.676515 499.391395 237.75616 C 499.590943 241.835806 499.690716 245.915452 499.690716 250.000641 Z M 499.690716 250.000641 " stroke="#000000" stroke-width="1" stroke-opacity="1" stroke-miterlimit="10"/></g><g fill="#000000" fill-opacity="1"><g transform="translate(77.797994, 96.755913)"><g><path d="M 13.015625 -10.015625 C 10.878906 -8.273438 8.625 -7.1875 6.25 -6.75 C 3.882812 -6.3125 1.507812 -6.609375 -0.875 -7.640625 C -3.257812 -8.679688 -5.519531 -10.515625 -7.65625 -13.140625 C -9.789062 -15.765625 -11.125 -18.347656 -11.65625 -20.890625 C -12.1875 -23.441406 -11.992188 -25.832031 -11.078125 -28.0625 C -10.171875 -30.289062 -8.648438 -32.273438 -6.515625 -34.015625 C -4.265625 -35.847656 -2 -36.960938 0.28125 -37.359375 C 2.570312 -37.753906 4.78125 -37.328125 6.90625 -36.078125 L 5.21875 -31.28125 L 4.8125 -30.96875 C 3.320312 -31.78125 1.929688 -32.101562 0.640625 -31.9375 C -0.640625 -31.769531 -1.945312 -31.140625 -3.28125 -30.046875 C -5.207031 -28.484375 -6.191406 -26.617188 -6.234375 -24.453125 C -6.285156 -22.285156 -5.175781 -19.804688 -2.90625 -17.015625 C -0.644531 -14.234375 1.546875 -12.644531 3.671875 -12.25 C 5.804688 -11.851562 7.835938 -12.4375 9.765625 -14 C 12.796875 -16.46875 13.457031 -19.460938 11.75 -22.984375 L 12.15625 -23.3125 L 16.984375 -24.28125 C 18.140625 -21.550781 18.394531 -19.003906 17.75 -16.640625 C 17.113281 -14.273438 15.535156 -12.066406 13.015625 -10.015625 Z M 13.015625 -10.015625 "/></g></g></g><g fill="#000000" fill-opacity="1"><g transform="translate(98.485022, 79.635456)"><g><path d="M 25.140625 -14.125 L 19.703125 -11.0625 L 14.328125 -15.984375 L 4.3125 -10.359375 L 5.71875 -3.21875 L 0.390625 -0.21875 L -5.28125 -31.5 L 1.375 -35.25 Z M 0.8125 -27.75 L 3.25 -15.5 L 10.453125 -19.546875 L 1.25 -28 Z M 0.8125 -27.75 "/></g></g></g><g fill="#000000" fill-opacity="1"><g transform="translate(121.063304, 66.070836)"><g><path d="M 8.90625 -2.890625 L 3.71875 -1.203125 L -5.546875 -29.796875 L 1.84375 -32.1875 L 15.890625 -13.515625 L 16.296875 -13.640625 L 16.6875 -37 L 23.90625 -39.34375 L 33.171875 -10.75 L 27.8125 -9.015625 L 21.6875 -27.90625 L 21.171875 -27.828125 L 20.71875 -6.71875 L 16 -5.1875 L 3.25 -22.015625 L 2.78125 -21.78125 Z M 8.90625 -2.890625 "/></g></g></g><g fill="#000000" fill-opacity="1"><g transform="translate(155.10315, 55.205203)"><g><path d="M 3.875 -0.453125 L 0.4375 -30.3125 L 13.1875 -31.78125 C 15.03125 -31.988281 16.617188 -31.875 17.953125 -31.4375 C 19.285156 -31.007812 20.335938 -30.296875 21.109375 -29.296875 C 21.890625 -28.304688 22.363281 -27.085938 22.53125 -25.640625 C 22.6875 -24.316406 22.503906 -23.113281 21.984375 -22.03125 C 21.460938 -20.945312 20.640625 -20.03125 19.515625 -19.28125 L 19.5625 -18.84375 C 21.5 -18.570312 23.050781 -17.847656 24.21875 -16.671875 C 25.382812 -15.503906 26.078125 -13.976562 26.296875 -12.09375 C 26.628906 -9.238281 26.023438 -6.9375 24.484375 -5.1875 C 22.941406 -3.4375 20.472656 -2.363281 17.078125 -1.96875 Z M 13.3125 -19.734375 C 16.070312 -20.046875 17.3125 -21.441406 17.03125 -23.921875 C 16.882812 -25.191406 16.429688 -26.09375 15.671875 -26.625 C 14.921875 -27.164062 13.847656 -27.359375 12.453125 -27.203125 L 6.84375 -26.546875 L 7.703125 -19.078125 Z M 15.953125 -6.578125 C 19.203125 -6.953125 20.65625 -8.617188 20.3125 -11.578125 C 19.96875 -14.546875 18.171875 -15.84375 14.921875 -15.46875 L 8.21875 -14.6875 L 9.25 -5.796875 Z M 15.953125 -6.578125 "/></g></g></g><g fill="#000000" fill-opacity="1"><g transform="translate(182.3735, 52.428595)"><g><path d="M 9.84375 0.109375 L 3.90625 0.046875 L 4.234375 -30.015625 L 10.171875 -29.953125 Z M 9.84375 0.109375 "/></g></g></g><g fill="#000000" fill-opacity="1"><g transform="translate(194.367696, 52.107445)"><g><path d="M 11.4375 -11.859375 L 10.390625 -3.6875 L 24.640625 -1.875 L 24.015625 3.046875 L 3.875 0.5 L 7.65625 -29.328125 L 27.46875 -26.8125 L 26.84375 -21.859375 L 12.921875 -23.640625 L 12.046875 -16.671875 L 24.21875 -15.125 L 23.609375 -10.3125 Z M 11.4375 -11.859375 "/></g></g></g><g fill="#000000" fill-opacity="1"><g transform="translate(217.321019, 54.137775)"><g><path d="M 8.90625 2.890625 L 3.71875 1.203125 L 13.015625 -27.375 L 20.390625 -24.96875 L 20.796875 -1.59375 L 21.21875 -1.453125 L 35.234375 -20.140625 L 42.453125 -17.78125 L 33.15625 10.796875 L 27.796875 9.046875 L 33.9375 -9.84375 L 33.484375 -10.0625 L 20.71875 6.734375 L 15.984375 5.203125 L 15.5625 -15.890625 L 15.046875 -16 Z M 8.90625 2.890625 "/></g></g></g><g fill="#000000" fill-opacity="1"><g transform="translate(251.188053, 65.143982)"><g><path d="M 13.984375 8.5625 C 11.585938 7.1875 9.757812 5.484375 8.5 3.453125 C 7.238281 1.429688 6.671875 -0.875 6.796875 -3.46875 C 6.921875 -6.070312 7.84375 -8.863281 9.5625 -11.84375 C 11.269531 -14.820312 13.21875 -17.015625 15.40625 -18.421875 C 17.59375 -19.828125 19.878906 -20.488281 22.265625 -20.40625 C 24.648438 -20.332031 27.039062 -19.609375 29.4375 -18.234375 C 31.8125 -16.859375 33.628906 -15.160156 34.890625 -13.140625 C 36.148438 -11.128906 36.710938 -8.820312 36.578125 -6.21875 C 36.453125 -3.613281 35.535156 -0.820312 33.828125 2.15625 C 32.109375 5.132812 30.148438 7.328125 27.953125 8.734375 C 25.765625 10.148438 23.484375 10.816406 21.109375 10.734375 C 18.734375 10.660156 16.359375 9.9375 13.984375 8.5625 Z M 16.5625 4.09375 C 18.769531 5.363281 20.863281 5.625 22.84375 4.875 C 24.820312 4.132812 26.710938 2.207031 28.515625 -0.90625 C 30.304688 -4.019531 31.03125 -6.625 30.6875 -8.71875 C 30.351562 -10.820312 29.082031 -12.507812 26.875 -13.78125 C 24.65625 -15.0625 22.546875 -15.328125 20.546875 -14.578125 C 18.546875 -13.828125 16.648438 -11.894531 14.859375 -8.78125 C 13.054688 -5.664062 12.332031 -3.0625 12.6875 -0.96875 C 13.050781 1.125 14.34375 2.8125 16.5625 4.09375 Z M 16.5625 4.09375 "/></g></g></g><g fill="#000000" fill-opacity="1"><g transform="translate(277.232001, 80.242428)"><g><path d="M 9.96875 8.859375 C 8.363281 7.535156 7.097656 6.148438 6.171875 4.703125 C 5.253906 3.265625 4.644531 1.878906 4.34375 0.546875 C 4.050781 -0.785156 4.007812 -2.019531 4.21875 -3.15625 L 9.28125 -4.125 L 9.671875 -3.796875 C 9.503906 -2.191406 9.695312 -0.640625 10.25 0.859375 C 10.8125 2.367188 11.8125 3.71875 13.25 4.90625 C 14.46875 5.925781 15.601562 6.429688 16.65625 6.421875 C 17.71875 6.421875 18.625 5.972656 19.375 5.078125 C 19.832031 4.515625 20.113281 3.96875 20.21875 3.4375 C 20.320312 2.90625 20.25 2.3125 20 1.65625 C 19.757812 1.007812 19.320312 0.265625 18.6875 -0.578125 L 16.296875 -3.734375 C 14.609375 -5.929688 13.710938 -8 13.609375 -9.9375 C 13.515625 -11.882812 14.203125 -13.738281 15.671875 -15.5 C 16.753906 -16.8125 18.035156 -17.691406 19.515625 -18.140625 C 20.992188 -18.585938 22.582031 -18.566406 24.28125 -18.078125 C 25.988281 -17.585938 27.710938 -16.625 29.453125 -15.1875 C 31.222656 -13.707031 32.546875 -12.203125 33.421875 -10.671875 C 34.304688 -9.140625 34.78125 -7.523438 34.84375 -5.828125 L 30 -4.609375 L 29.609375 -4.953125 C 29.535156 -6.171875 29.21875 -7.300781 28.65625 -8.34375 C 28.09375 -9.382812 27.273438 -10.359375 26.203125 -11.265625 C 24.941406 -12.304688 23.800781 -12.878906 22.78125 -12.984375 C 21.757812 -13.085938 20.925781 -12.75 20.28125 -11.96875 C 19.675781 -11.238281 19.421875 -10.46875 19.515625 -9.65625 C 19.609375 -8.84375 20.125 -7.847656 21.0625 -6.671875 L 23.5625 -3.5 C 25.40625 -1.164062 26.363281 0.984375 26.4375 2.953125 C 26.507812 4.929688 25.789062 6.832031 24.28125 8.65625 C 23.070312 10.09375 21.710938 11.085938 20.203125 11.640625 C 18.703125 12.203125 17.070312 12.257812 15.3125 11.8125 C 13.5625 11.363281 11.78125 10.378906 9.96875 8.859375 Z M 9.96875 8.859375 "/></g></g></g><g fill="#000000" fill-opacity="1"><g transform="translate(116.185977, 344.728766)"><g><path d="M 14.5 4.9375 C 12.039062 4.164062 10.03125 2.972656 8.46875 1.359375 C 6.90625 -0.242188 5.910156 -2.238281 5.484375 -4.625 C 5.066406 -7.007812 5.328125 -9.710938 6.265625 -12.734375 C 7.203125 -15.742188 8.519531 -18.113281 10.21875 -19.84375 C 11.925781 -21.570312 13.878906 -22.65625 16.078125 -23.09375 C 18.273438 -23.539062 20.601562 -23.378906 23.0625 -22.609375 C 25.632812 -21.816406 27.660156 -20.632812 29.140625 -19.0625 C 30.628906 -17.488281 31.441406 -15.554688 31.578125 -13.265625 L 26.984375 -12.109375 L 26.546875 -12.265625 C 26.390625 -13.828125 25.914062 -15.0625 25.125 -15.96875 C 24.332031 -16.882812 23.171875 -17.578125 21.640625 -18.046875 C 19.421875 -18.742188 17.457031 -18.546875 15.75 -17.453125 C 14.050781 -16.367188 12.707031 -14.234375 11.71875 -11.046875 C 10.726562 -7.859375 10.625 -5.332031 11.40625 -3.46875 C 12.195312 -1.613281 13.703125 -0.335938 15.921875 0.359375 C 19.398438 1.429688 22.0625 0.398438 23.90625 -2.734375 L 24.34375 -2.59375 L 27.640625 0.640625 C 26.109375 2.953125 24.257812 4.46875 22.09375 5.1875 C 19.925781 5.914062 17.394531 5.832031 14.5 4.9375 Z M 14.5 4.9375 "/></g></g></g><g fill="#000000" fill-opacity="1"><g transform="translate(144.540774, 353.249881)"><g><path d="M 11.03125 -10.6875 L 9.8125 -3.109375 L 23.015625 -0.984375 L 22.28125 3.59375 L 3.59375 0.578125 L 8.046875 -27.09375 L 26.4375 -24.125 L 25.703125 -19.546875 L 12.796875 -21.625 L 11.75 -15.140625 L 23.015625 -13.328125 L 22.296875 -8.875 Z M 11.03125 -10.6875 "/></g></g></g><g fill="#000000" fill-opacity="1"><g transform="translate(170.530352, 357.482349)"><g><path d="M 14.859375 0.59375 C 10.992188 0.539062 8.140625 -0.410156 6.296875 -2.265625 C 4.453125 -4.117188 3.550781 -6.847656 3.59375 -10.453125 L 3.8125 -27.984375 L 9.234375 -27.921875 L 9.015625 -10.4375 C 8.992188 -8.394531 9.46875 -6.851562 10.4375 -5.8125 C 11.414062 -4.78125 12.910156 -4.25 14.921875 -4.21875 C 18.898438 -4.164062 20.910156 -6.1875 20.953125 -10.28125 L 21.171875 -27.765625 L 26.59375 -27.703125 L 26.375 -10.171875 C 26.332031 -6.566406 25.367188 -3.859375 23.484375 -2.046875 C 21.597656 -0.234375 18.722656 0.644531 14.859375 0.59375 Z M 14.859375 0.59375 "/></g></g></g><g fill="#000000" fill-opacity="1"><g transform="translate(202.518348, 357.553773)"><g><path d="M 10.453125 -29.765625 C 12.441406 -30.046875 14.191406 -29.921875 15.703125 -29.390625 C 17.222656 -28.859375 18.429688 -27.988281 19.328125 -26.78125 C 20.234375 -25.570312 20.8125 -24.097656 21.0625 -22.359375 C 21.300781 -20.628906 21.148438 -19.0625 20.609375 -17.65625 C 20.078125 -16.25 19.148438 -15.082031 17.828125 -14.15625 C 16.515625 -13.238281 14.863281 -12.640625 12.875 -12.359375 L 7.640625 -11.625 L 9.09375 -1.265625 L 3.609375 -0.5 L -0.265625 -28.265625 Z M 11.5625 -16.609375 C 14.613281 -17.035156 15.941406 -18.695312 15.546875 -21.59375 C 15.128906 -24.5 13.394531 -25.738281 10.34375 -25.3125 L 5.8125 -24.671875 L 7.03125 -15.96875 Z M 11.5625 -16.609375 "/></g></g></g><g fill="#000000" fill-opacity="1"><g transform="translate(230.196207, 353.693062)"><g><path d="M 14.75 -4.015625 C 12.289062 -3.273438 9.972656 -3.125 7.796875 -3.5625 C 5.617188 -4 3.679688 -5.085938 1.984375 -6.828125 C 0.296875 -8.578125 -1.007812 -10.988281 -1.9375 -14.0625 C -2.863281 -17.132812 -3.101562 -19.859375 -2.65625 -22.234375 C -2.207031 -24.609375 -1.195312 -26.582031 0.375 -28.15625 C 1.945312 -29.738281 3.960938 -30.898438 6.421875 -31.640625 C 8.890625 -32.378906 11.207031 -32.53125 13.375 -32.09375 C 15.550781 -31.664062 17.476562 -30.578125 19.15625 -28.828125 C 20.832031 -27.078125 22.132812 -24.664062 23.0625 -21.59375 C 23.988281 -18.519531 24.234375 -15.789062 23.796875 -13.40625 C 23.367188 -11.019531 22.367188 -9.039062 20.796875 -7.46875 C 19.234375 -5.90625 17.21875 -4.753906 14.75 -4.015625 Z M 13.359375 -8.625 C 15.640625 -9.3125 17.15625 -10.566406 17.90625 -12.390625 C 18.664062 -14.210938 18.5625 -16.726562 17.59375 -19.9375 C 16.632812 -23.132812 15.332031 -25.289062 13.6875 -26.40625 C 12.039062 -27.519531 10.078125 -27.734375 7.796875 -27.046875 C 5.515625 -26.359375 3.992188 -25.09375 3.234375 -23.25 C 2.472656 -21.414062 2.570312 -18.898438 3.53125 -15.703125 C 4.5 -12.492188 5.804688 -10.335938 7.453125 -9.234375 C 9.109375 -8.140625 11.078125 -7.9375 13.359375 -8.625 Z M 13.359375 -8.625 "/></g></g></g><g clip-path="url(#b92fc2645c)"><path fill="#000000" d="M 67.367188 96.730469 C 58.085938 98.4375 56.703125 99.824219 54.992188 109.105469 C 53.285156 99.824219 51.898438 98.4375 42.621094 96.730469 C 51.898438 95.023438 53.285156 93.636719 54.992188 84.355469 C 56.703125 93.636719 58.085938 95.023438 67.367188 96.730469 Z M 67.367188 96.730469 " fill-opacity="1" fill-rule="nonzero"/></g><g clip-path="url(#338de4b0f3)"><path fill="#000000" d="M 227.972656 246.398438 C 227.433594 246.328125 226.824219 246.171875 226.589844 245.683594 C 226.410156 245.308594 226.519531 244.863281 226.648438 244.464844 C 227.996094 240.308594 231.226562 236.800781 232.960938 232.886719 C 233.589844 237.625 234.214844 242.367188 234.847656 247.105469 C 232.636719 246.445312 230.261719 246.699219 227.972656 246.398438 Z M 256.601562 113.371094 C 255.972656 111.351562 255.347656 109.332031 254.71875 107.3125 C 256.625 101.402344 258.070312 95.316406 257.257812 89.214844 C 257.082031 87.875 256.773438 86.507812 255.980469 85.421875 C 255.183594 84.335938 253.78125 83.59375 252.472656 83.917969 C 251.671875 84.113281 251.019531 84.664062 250.398438 85.203125 C 245.9375 89.070312 241.707031 93.203125 237.734375 97.566406 C 234.664062 95.71875 231.300781 94.34375 227.808594 93.511719 C 224.929688 92.824219 221.96875 92.503906 219.011719 92.589844 C 218.335938 91.445312 217.554688 90.351562 216.742188 89.304688 C 214.515625 86.433594 211.980469 83.75 210.3125 80.523438 C 209.683594 79.3125 209.167969 78.007812 208.257812 76.996094 C 207.339844 75.976562 205.878906 75.300781 204.59375 75.773438 C 203.695312 76.101562 203.066406 76.917969 202.574219 77.742188 C 200.046875 81.996094 199.882812 87.207031 199.964844 92.15625 C 200.039062 96.808594 200.269531 101.449219 200.65625 106.085938 C 198.761719 108.738281 196.984375 111.464844 195.554688 114.382812 C 193.570312 118.425781 192.253906 122.894531 192.363281 127.378906 C 192.375 127.949219 192.410156 128.519531 192.472656 129.089844 C 192.722656 131.457031 193.441406 133.808594 194.59375 135.898438 C 193.996094 136.433594 193.347656 136.9375 192.675781 137.433594 C 189.816406 139.503906 186.449219 141.316406 184.386719 144.109375 C 182.828125 146.222656 182.085938 148.828125 180.746094 151.085938 C 178.046875 155.648438 173.261719 158.371094 168.523438 160.871094 C 167.902344 161.199219 167.277344 161.523438 166.65625 161.851562 C 157.042969 166.917969 147.734375 172.910156 140.566406 181.074219 C 135.195312 187.191406 131.324219 194.480469 129.023438 202.261719 C 125.210938 215.082031 125.644531 229.230469 130.558594 241.636719 C 127.234375 241.402344 123.886719 241.199219 120.535156 241.066406 C 115.507812 240.863281 110.476562 240.820312 105.503906 241.089844 C 103.855469 241.175781 102.210938 241.300781 100.585938 241.460938 C 98.886719 241.625 97.195312 241.835938 95.515625 242.089844 C 88.773438 243.132812 82.226562 244.957031 76.054688 247.957031 C 75.632812 248.160156 75.214844 248.367188 74.796875 248.585938 C 72.566406 249.734375 70.34375 251.105469 68.96875 253.199219 C 67.589844 255.292969 67.296875 258.285156 68.890625 260.222656 C 69.898438 261.449219 71.3125 261.972656 72.878906 262.09375 C 74.878906 262.261719 77.128906 261.769531 79.101562 261.273438 C 83.492188 260.160156 87.96875 259.402344 92.480469 259.003906 C 94.835938 258.792969 97.195312 258.679688 99.558594 258.667969 C 101.304688 258.652344 103.046875 258.695312 104.789062 258.789062 C 107.382812 258.929688 109.964844 259.1875 112.539062 259.566406 C 118.371094 260.421875 124.195312 261.886719 130.078125 261.542969 C 133.273438 261.359375 136.554688 260.519531 139.324219 258.953125 C 141.339844 259.96875 143.300781 261.164062 145.425781 261.90625 C 147.511719 262.640625 149.726562 262.925781 151.921875 263.207031 C 154.0625 263.480469 156.207031 263.753906 158.347656 264.027344 C 161.996094 264.496094 165.648438 264.960938 169.320312 264.960938 C 172.5 264.960938 175.675781 264.605469 178.773438 263.914062 C 180.957031 263.421875 183.222656 262.691406 184.714844 261.019531 C 185.160156 260.511719 185.507812 259.894531 185.722656 259.242188 C 191.34375 260.109375 197.246094 259.195312 202.308594 256.621094 C 204.5625 260.039062 207.34375 263.75 211.402344 264.183594 C 212.445312 264.296875 213.535156 264.164062 214.449219 263.65625 C 216.527344 262.511719 217.1875 259.808594 217.0625 257.4375 C 217.058594 257.394531 217.058594 257.351562 217.054688 257.308594 C 217.839844 257.453125 218.632812 257.378906 219.304688 256.957031 C 220.007812 256.515625 220.480469 255.753906 221.21875 255.386719 C 221.855469 255.070312 222.601562 255.082031 223.308594 255.109375 C 224.96875 255.15625 226.636719 255.207031 228.296875 255.261719 C 230.308594 255.320312 232.378906 255.371094 234.269531 254.675781 C 234.625 254.542969 234.980469 254.375 235.316406 254.179688 C 236.511719 257.078125 238.035156 259.867188 240.640625 261.507812 C 243.914062 263.566406 249.332031 262.441406 250.054688 258.648438 C 250.347656 257.101562 249.824219 255.539062 249.402344 254.019531 C 247.320312 246.453125 247.953125 238.4375 248.597656 230.617188 C 248.894531 227.027344 249.191406 223.441406 249.488281 219.859375 C 249.621094 218.269531 249.75 216.683594 249.882812 215.097656 C 250.363281 209.324219 250.84375 203.53125 252.09375 197.875 C 253.152344 193.089844 254.761719 188.359375 254.863281 183.457031 C 254.9375 180.054688 254.273438 176.65625 254.578125 173.269531 C 254.867188 170.019531 256.042969 166.890625 256.34375 163.640625 C 256.667969 160.148438 255.972656 156.667969 255.320312 153.195312 C 254.683594 149.800781 254.089844 146.40625 254.523438 143.003906 C 255.039062 138.964844 256.96875 135.242188 258.136719 131.347656 C 258.476562 130.207031 258.753906 129.046875 258.90625 127.859375 C 259.546875 122.972656 258.066406 118.078125 256.601562 113.371094 " fill-opacity="1" fill-rule="nonzero"/></g><g clip-path="url(#97cf88a415)"><path fill="#000000" d="M 95.515625 242.089844 C 95.300781 242.472656 95.042969 242.839844 94.792969 243.179688 C 93.289062 245.21875 91.992188 247.40625 90.929688 249.707031 C 90.367188 250.925781 89.859375 252.234375 89.976562 253.570312 C 90.140625 255.488281 91.53125 257.046875 92.375 258.777344 C 92.410156 258.851562 92.449219 258.925781 92.480469 259.003906 C 94.835938 258.792969 97.195312 258.679688 99.558594 258.667969 C 98.9375 256.828125 98.300781 254.988281 98.265625 253.070312 C 98.199219 249.113281 100.730469 245.332031 100.585938 241.460938 C 98.886719 241.625 97.195312 241.835938 95.515625 242.089844 Z M 234.847656 247.105469 C 234.214844 242.367188 233.589844 237.625 232.960938 232.886719 C 231.226562 236.800781 227.996094 240.308594 226.648438 244.464844 C 226.519531 244.863281 226.410156 245.308594 226.589844 245.683594 C 226.824219 246.171875 227.433594 246.328125 227.972656 246.398438 C 230.261719 246.699219 232.636719 246.445312 234.847656 247.105469 Z M 258.136719 131.347656 C 256.96875 135.242188 255.039062 138.964844 254.523438 143.003906 C 254.089844 146.40625 254.683594 149.800781 255.320312 153.195312 C 254.652344 154.828125 253.636719 156.378906 252.484375 157.667969 C 249.503906 160.980469 245.597656 163.496094 243.265625 167.289062 C 241.140625 170.746094 240.539062 175.105469 241.660156 179.007812 C 242.554688 182.140625 244.46875 184.878906 245.710938 187.890625 C 247.367188 191.90625 247.808594 196.417969 246.953125 200.675781 C 246.164062 204.632812 244.289062 208.425781 244.417969 212.457031 C 244.519531 215.636719 246.667969 219.039062 249.488281 219.859375 C 249.191406 223.441406 248.894531 227.027344 248.597656 230.617188 C 247.953125 238.4375 247.320312 246.453125 249.402344 254.019531 C 249.824219 255.539062 250.347656 257.101562 250.054688 258.648438 C 249.332031 262.441406 243.914062 263.566406 240.640625 261.507812 C 238.035156 259.867188 236.511719 257.078125 235.316406 254.179688 C 234.980469 254.375 234.625 254.542969 234.269531 254.675781 C 232.378906 255.371094 230.308594 255.320312 228.296875 255.261719 C 226.636719 255.207031 224.96875 255.15625 223.308594 255.109375 C 222.601562 255.082031 221.855469 255.070312 221.21875 255.386719 C 220.480469 255.753906 220.007812 256.515625 219.304688 256.957031 C 218.632812 257.378906 217.839844 257.453125 217.054688 257.308594 C 217.058594 257.351562 217.058594 257.394531 217.0625 257.4375 C 217.1875 259.808594 216.527344 262.511719 214.449219 263.65625 C 213.535156 264.164062 212.445312 264.296875 211.402344 264.183594 C 207.34375 263.75 204.5625 260.039062 202.308594 256.621094 C 197.246094 259.195312 191.34375 260.109375 185.722656 259.242188 C 185.507812 259.894531 185.160156 260.511719 184.714844 261.019531 C 183.222656 262.691406 180.957031 263.421875 178.773438 263.914062 C 175.675781 264.605469 172.5 264.960938 169.320312 264.960938 C 165.648438 264.960938 161.996094 264.496094 158.347656 264.027344 C 156.207031 263.753906 154.0625 263.480469 151.921875 263.207031 C 149.726562 262.925781 147.511719 262.640625 145.425781 261.90625 C 143.300781 261.164062 141.339844 259.96875 139.324219 258.953125 C 136.554688 260.519531 133.273438 261.359375 130.078125 261.542969 C 124.195312 261.886719 118.371094 260.421875 112.539062 259.566406 C 109.964844 259.1875 107.382812 258.929688 104.789062 258.789062 C 105.089844 257.546875 105.136719 256.242188 104.914062 254.988281 C 105.769531 255.285156 106.605469 255.734375 107.460938 256.058594 C 108.933594 256.621094 110.945312 256.628906 111.71875 255.253906 C 112.117188 254.527344 112.054688 253.609375 112.488281 252.902344 C 113.570312 251.136719 116.398438 252.15625 118.273438 251.265625 C 119.988281 250.449219 120.472656 248.261719 120.597656 246.363281 C 120.707031 244.597656 120.691406 242.828125 120.535156 241.066406 C 123.886719 241.199219 127.234375 241.402344 130.558594 241.636719 C 125.644531 229.230469 125.210938 215.082031 129.023438 202.261719 C 131.386719 204.785156 134.363281 206.78125 137.410156 208.480469 C 141.316406 210.667969 145.65625 212.515625 150.117188 212.167969 C 154.582031 211.824219 159.089844 208.660156 159.625 204.21875 C 159.917969 201.789062 159.039062 199.390625 158.625 196.976562 C 158.214844 194.5625 158.445312 191.726562 160.363281 190.203125 C 161.773438 189.089844 163.570312 189.027344 165.417969 189.199219 C 166.484375 189.296875 167.566406 189.472656 168.597656 189.5625 C 174.972656 190.144531 181.542969 186.742188 184.757812 181.207031 C 186.078125 178.945312 187.960938 175.871094 190.40625 176.8125 C 191.925781 177.402344 192.457031 179.308594 193.746094 180.300781 C 195.652344 181.761719 198.632812 180.65625 199.921875 178.632812 C 201.207031 176.609375 201.234375 174.050781 201.078125 171.65625 C 200.691406 165.636719 199.414062 159.679688 197.300781 154.03125 C 195.273438 148.617188 192.429688 143.078125 192.675781 137.433594 C 193.347656 136.9375 193.996094 136.433594 194.59375 135.898438 C 193.441406 133.808594 192.722656 131.457031 192.472656 129.089844 C 192.410156 128.519531 192.375 127.949219 192.363281 127.378906 C 194.039062 126.785156 195.636719 126.398438 196.816406 127.558594 C 198.121094 128.847656 197.605469 131.03125 198.125 132.789062 C 198.921875 135.5 202.230469 136.804688 205.015625 136.335938 C 207.804688 135.871094 210.175781 134.109375 212.429688 132.398438 C 214.734375 130.644531 217.175781 128.675781 218.507812 126.195312 C 223.582031 127.003906 228.375 129.601562 231.769531 133.46875 C 234.03125 136.039062 236.320312 139.453125 239.734375 139.3125 C 243.410156 139.164062 245.46875 134.804688 245.355469 131.128906 C 245.335938 130.566406 245.292969 129.980469 245.464844 129.441406 C 245.835938 128.308594 247.132812 127.679688 248.328125 127.703125 C 249.527344 127.726562 250.644531 128.261719 251.71875 128.789062 C 253.777344 129.8125 255.910156 130.898438 258.136719 131.347656 " fill-opacity="1" fill-rule="nonzero"/></g><g clip-path="url(#13634245c3)"><path fill="#000000" d="M 76.054688 247.957031 C 76.1875 250.628906 76.851562 253.515625 76.0625 256.035156 C 75.503906 257.835938 74.242188 259.316406 73.363281 260.976562 C 73.179688 261.332031 73.011719 261.707031 72.878906 262.09375 C 74.878906 262.261719 77.128906 261.769531 79.101562 261.273438 C 83.492188 260.160156 87.96875 259.402344 92.480469 259.003906 C 92.449219 258.925781 92.410156 258.851562 92.375 258.777344 C 91.53125 257.046875 90.140625 255.488281 89.976562 253.570312 C 89.859375 252.234375 90.367188 250.925781 90.929688 249.707031 C 91.992188 247.40625 93.289062 245.21875 94.792969 243.179688 C 95.042969 242.839844 95.300781 242.472656 95.515625 242.089844 C 88.773438 243.132812 82.226562 244.957031 76.054688 247.957031 Z M 100.585938 241.460938 C 100.730469 245.332031 98.199219 249.113281 98.265625 253.070312 C 98.300781 254.988281 98.9375 256.828125 99.558594 258.667969 C 101.304688 258.652344 103.046875 258.695312 104.789062 258.789062 C 105.089844 257.546875 105.136719 256.242188 104.914062 254.988281 C 104.832031 254.527344 104.714844 254.074219 104.558594 253.628906 C 104.328125 252.984375 104.027344 252.347656 103.976562 251.664062 C 103.792969 249.300781 106.523438 247.761719 107.21875 245.492188 C 107.714844 243.871094 106.921875 241.988281 105.503906 241.089844 C 103.855469 241.175781 102.210938 241.300781 100.585938 241.460938 Z M 168.523438 160.871094 C 167.902344 161.199219 167.277344 161.523438 166.65625 161.851562 C 157.042969 166.917969 147.734375 172.910156 140.566406 181.074219 C 135.195312 187.191406 131.324219 194.480469 129.023438 202.261719 C 131.386719 204.785156 134.363281 206.78125 137.410156 208.480469 C 141.316406 210.667969 145.65625 212.515625 150.117188 212.167969 C 154.582031 211.824219 159.089844 208.660156 159.625 204.21875 C 159.917969 201.789062 159.039062 199.390625 158.625 196.976562 C 158.214844 194.5625 158.445312 191.726562 160.363281 190.203125 C 161.773438 189.089844 163.570312 189.027344 165.417969 189.199219 C 165.234375 187.808594 165.8125 186.140625 166.683594 184.949219 C 168.054688 183.070312 170.011719 181.394531 170.277344 179.078125 C 170.476562 177.355469 169.667969 175.699219 169.0625 174.070312 C 167.519531 169.871094 167.347656 165.1875 168.523438 160.871094 Z M 219.011719 92.589844 C 218.335938 91.445312 217.554688 90.351562 216.742188 89.304688 C 214.515625 86.433594 211.980469 83.75 210.3125 80.523438 C 209.683594 79.3125 209.167969 78.007812 208.257812 76.996094 C 207.339844 75.976562 205.878906 75.300781 204.59375 75.773438 C 203.695312 76.101562 203.066406 76.917969 202.574219 77.742188 C 200.046875 81.996094 199.882812 87.207031 199.964844 92.15625 C 200.039062 96.808594 200.269531 101.449219 200.65625 106.085938 C 198.761719 108.738281 196.984375 111.464844 195.554688 114.382812 C 193.570312 118.425781 192.253906 122.894531 192.363281 127.378906 C 194.039062 126.785156 195.636719 126.398438 196.816406 127.558594 C 198.121094 128.847656 197.605469 131.03125 198.125 132.789062 C 198.921875 135.5 202.230469 136.804688 205.015625 136.335938 C 207.804688 135.871094 210.175781 134.109375 212.429688 132.398438 C 214.734375 130.644531 217.175781 128.675781 218.507812 126.195312 C 218.960938 125.355469 219.289062 124.457031 219.4375 123.488281 C 219.808594 121.117188 219.042969 118.710938 219.175781 116.3125 C 219.421875 111.84375 222.660156 108.207031 224.789062 104.261719 C 226.566406 100.960938 227.597656 97.257812 227.808594 93.511719 C 224.929688 92.824219 221.96875 92.503906 219.011719 92.589844 Z M 255.320312 153.195312 C 255.972656 156.667969 256.667969 160.148438 256.34375 163.640625 C 256.042969 166.890625 254.867188 170.019531 254.578125 173.269531 C 254.273438 176.65625 254.9375 180.054688 254.863281 183.457031 C 254.761719 188.359375 253.152344 193.089844 252.09375 197.875 C 250.84375 203.53125 250.363281 209.324219 249.882812 215.097656 C 249.75 216.683594 249.621094 218.269531 249.488281 219.859375 C 246.667969 219.039062 244.519531 215.636719 244.417969 212.457031 C 244.289062 208.425781 246.164062 204.632812 246.953125 200.675781 C 247.808594 196.417969 247.367188 191.90625 245.710938 187.890625 C 244.46875 184.878906 242.554688 182.140625 241.660156 179.007812 C 240.539062 175.105469 241.140625 170.746094 243.265625 167.289062 C 245.597656 163.496094 249.503906 160.980469 252.484375 157.667969 C 253.636719 156.378906 254.652344 154.828125 255.320312 153.195312 " fill-opacity="1" fill-rule="nonzero"/></g><g clip-path="url(#e67a84b8b2)"><path fill="#000000" d="M 74.796875 248.585938 C 72.566406 249.734375 70.34375 251.105469 68.96875 253.199219 C 67.589844 255.292969 67.296875 258.285156 68.890625 260.222656 C 69.898438 261.449219 71.3125 261.972656 72.878906 262.09375 C 73.011719 261.707031 73.179688 261.332031 73.363281 260.976562 C 74.242188 259.316406 75.503906 257.835938 76.0625 256.035156 C 76.851562 253.515625 76.1875 250.628906 76.054688 247.957031 C 75.632812 248.160156 75.214844 248.367188 74.796875 248.585938 Z M 105.503906 241.089844 C 106.921875 241.988281 107.714844 243.871094 107.21875 245.492188 C 106.523438 247.761719 103.792969 249.300781 103.976562 251.664062 C 104.027344 252.347656 104.328125 252.984375 104.558594 253.628906 C 104.714844 254.074219 104.832031 254.527344 104.914062 254.988281 C 105.769531 255.285156 106.605469 255.734375 107.460938 256.058594 C 108.933594 256.621094 110.945312 256.628906 111.71875 255.253906 C 112.117188 254.527344 112.054688 253.609375 112.488281 252.902344 C 113.570312 251.136719 116.398438 252.15625 118.273438 251.265625 C 119.988281 250.449219 120.472656 248.261719 120.597656 246.363281 C 120.707031 244.597656 120.691406 242.828125 120.535156 241.066406 C 115.507812 240.863281 110.476562 240.820312 105.503906 241.089844 Z M 197.300781 154.03125 C 195.273438 148.617188 192.429688 143.078125 192.675781 137.433594 C 189.816406 139.503906 186.449219 141.316406 184.386719 144.109375 C 182.828125 146.222656 182.085938 148.828125 180.746094 151.085938 C 178.046875 155.648438 173.261719 158.371094 168.523438 160.871094 C 167.347656 165.1875 167.519531 169.871094 169.0625 174.070312 C 169.667969 175.699219 170.476562 177.355469 170.277344 179.078125 C 170.011719 181.394531 168.054688 183.070312 166.683594 184.949219 C 165.8125 186.140625 165.234375 187.808594 165.417969 189.199219 C 166.484375 189.296875 167.566406 189.472656 168.597656 189.5625 C 174.972656 190.144531 181.542969 186.742188 184.757812 181.207031 C 186.078125 178.945312 187.960938 175.871094 190.40625 176.8125 C 191.925781 177.402344 192.457031 179.308594 193.746094 180.300781 C 195.652344 181.761719 198.632812 180.65625 199.921875 178.632812 C 201.207031 176.609375 201.234375 174.050781 201.078125 171.65625 C 200.691406 165.636719 199.414062 159.679688 197.300781 154.03125 Z M 256.601562 113.371094 C 258.066406 118.078125 259.546875 122.972656 258.90625 127.859375 C 258.753906 129.046875 258.476562 130.207031 258.136719 131.347656 C 255.910156 130.898438 253.777344 129.8125 251.71875 128.789062 C 250.644531 128.261719 249.527344 127.726562 248.328125 127.703125 C 247.132812 127.679688 245.835938 128.308594 245.464844 129.441406 C 245.292969 129.980469 245.335938 130.566406 245.355469 131.128906 C 245.46875 134.804688 243.410156 139.164062 239.734375 139.3125 C 236.320312 139.453125 234.03125 136.039062 231.769531 133.46875 C 228.375 129.601562 223.582031 127.003906 218.507812 126.195312 C 218.960938 125.355469 219.289062 124.457031 219.4375 123.488281 C 219.808594 121.117188 219.042969 118.710938 219.175781 116.3125 C 219.421875 111.84375 222.660156 108.207031 224.789062 104.261719 C 226.566406 100.960938 227.597656 97.257812 227.808594 93.511719 C 231.300781 94.34375 234.664062 95.71875 237.734375 97.566406 C 241.707031 93.203125 245.9375 89.070312 250.398438 85.203125 C 251.019531 84.664062 251.671875 84.113281 252.472656 83.917969 C 253.78125 83.59375 255.183594 84.335938 255.980469 85.421875 C 256.773438 86.507812 257.082031 87.875 257.257812 89.214844 C 258.070312 95.316406 256.625 101.402344 254.71875 107.3125 C 255.347656 109.332031 255.972656 111.351562 256.601562 113.371094 " fill-opacity="1" fill-rule="nonzero"/></g><path fill="#000000" d="M 252.925781 103.960938 C 253.859375 101.269531 254.480469 98.476562 254.769531 95.644531 C 254.855469 94.816406 254.914062 93.960938 254.679688 93.164062 C 254.441406 92.367188 253.859375 91.621094 253.050781 91.414062 C 251.695312 91.078125 250.484375 92.285156 249.613281 93.375 C 248.0625 95.3125 246.507812 97.238281 244.953125 99.167969 C 244.132812 100.1875 244.464844 101.699219 245.628906 102.289062 C 247.0625 103.011719 248.417969 103.882812 249.671875 104.890625 C 250.792969 105.785156 252.453125 105.320312 252.925781 103.960938 Z M 210.46875 96.71875 C 209.105469 97.554688 207.8125 98.507812 206.609375 99.558594 C 205.332031 100.679688 203.34375 99.867188 203.203125 98.171875 C 202.941406 94.9375 202.90625 91.679688 203.097656 88.4375 C 203.175781 87.207031 203.511719 85.691406 204.710938 85.402344 C 205.917969 85.113281 206.90625 86.332031 207.539062 87.398438 C 208.828125 89.574219 210.050781 91.789062 211.195312 94.042969 C 211.679688 94.988281 211.375 96.160156 210.46875 96.71875 " fill-opacity="1" fill-rule="nonzero"/><path fill="#000000" d="M 241.8125 110.863281 C 241.820312 112.554688 239.359375 112.171875 236.324219 112.179688 C 233.292969 112.191406 230.832031 112.597656 230.828125 110.90625 C 230.820312 109.210938 233.277344 107.828125 236.308594 107.816406 C 239.34375 107.804688 241.804688 109.167969 241.8125 110.863281 " fill-opacity="1" fill-rule="nonzero"/><path fill="#000000" d="M 213.6875 110.882812 C 213.6875 112.578125 211.226562 112.179688 208.191406 112.179688 C 205.160156 112.179688 202.699219 112.578125 202.699219 110.882812 C 202.699219 109.191406 205.160156 107.816406 208.191406 107.816406 C 211.226562 107.816406 213.6875 109.191406 213.6875 110.882812 " fill-opacity="1" fill-rule="nonzero"/><g clip-path="url(#dacb6daad2)"><path fill="#000000" d="M 245.84375 142.742188 C 247.066406 141.972656 245.980469 140.496094 244.847656 141.203125 C 237.039062 146.050781 228.394531 151.152344 218.820312 149.777344 C 214.183594 149.109375 209.878906 147.082031 206.042969 144.453125 C 203.96875 143.035156 202.050781 141.429688 200.167969 139.769531 C 200.136719 139.742188 200.105469 139.710938 200.074219 139.683594 C 201.183594 138.699219 202.320312 137.75 203.480469 136.835938 C 205.457031 135.289062 207.765625 133.980469 209.582031 132.25 C 209.945312 131.90625 209.40625 131.546875 209.058594 131.667969 C 206.449219 132.59375 204.023438 134.5 201.847656 136.179688 C 200.84375 136.957031 199.871094 137.769531 198.921875 138.609375 C 197.730469 137.464844 196.546875 136.285156 195.183594 135.394531 C 194.984375 135.265625 194.398438 135.40625 194.59375 135.726562 C 195.441406 137.132812 196.640625 138.390625 197.855469 139.578125 C 197.140625 140.238281 196.433594 140.910156 195.75 141.605469 C 191.75 145.640625 188.320312 150.167969 185.507812 155.105469 C 185.046875 155.910156 186.539062 156.160156 186.941406 155.5 C 189.832031 150.738281 193.261719 146.300781 197.210938 142.367188 C 197.789062 141.789062 198.382812 141.226562 198.984375 140.671875 C 199.132812 140.816406 199.28125 140.960938 199.425781 141.105469 C 201.320312 142.960938 203.363281 144.683594 205.539062 146.199219 C 209.367188 148.871094 213.800781 150.839844 218.433594 151.523438 C 228.5 153.011719 237.632812 147.914062 245.84375 142.742188 Z M 231.1875 133.519531 C 230.71875 133.621094 230.914062 134.246094 231.363281 134.179688 C 236.980469 133.304688 242.558594 134.949219 247.339844 137.890625 C 252.082031 140.808594 255.84375 144.859375 260.160156 148.316406 C 260.5625 148.640625 261.398438 148.128906 260.996094 147.644531 C 253.953125 139.195312 242.78125 130.925781 231.1875 133.519531 Z M 266.851562 137.492188 C 257.5625 128.824219 243.835938 126.28125 231.859375 130.210938 C 231.035156 130.484375 231.625 131.375 232.351562 131.167969 C 243.804688 127.855469 256.398438 130.90625 265.554688 138.410156 C 266.179688 138.925781 267.589844 138.179688 266.851562 137.492188 Z M 171.910156 142.914062 C 182.269531 134.582031 195.011719 130.144531 208.34375 131.035156 C 209.222656 131.09375 209.527344 129.921875 208.554688 129.832031 C 195.0625 128.601562 180.976562 132.988281 170.9375 142.167969 C 170.347656 142.710938 171.414062 143.316406 171.910156 142.914062 Z M 207.292969 257.832031 C 207.179688 257.777344 206.96875 257.832031 206.9375 257.96875 C 206.816406 258.554688 207.066406 259.210938 206.996094 259.824219 C 206.929688 260.449219 206.46875 261.070312 206.640625 261.671875 C 206.707031 261.910156 207.113281 261.96875 207.296875 261.886719 C 208.671875 261.304688 208.617188 258.476562 207.292969 257.832031 Z M 240.839844 256.792969 C 241.40625 258.460938 241.183594 259.976562 241.128906 261.6875 C 241.113281 262.199219 242.03125 262.148438 242.203125 261.785156 C 243.007812 260.109375 242.5625 258.078125 241.726562 256.5 C 241.503906 256.074219 240.664062 256.28125 240.839844 256.792969 Z M 246.300781 254.460938 C 245.96875 254.152344 245.148438 254.472656 245.523438 254.925781 C 246.285156 255.835938 246.792969 256.855469 247.074219 258.007812 C 247.289062 258.894531 247.210938 259.882812 247.605469 260.707031 C 247.769531 261.050781 248.355469 261.019531 248.53125 260.703125 C 249.671875 258.660156 247.773438 255.816406 246.300781 254.460938 Z M 235.039062 246.71875 C 235.027344 246.535156 234.671875 246.511719 234.648438 246.691406 C 234.285156 249.164062 234.054688 252.65625 235.507812 254.824219 C 235.769531 255.214844 236.636719 255.160156 236.582031 254.578125 C 236.464844 253.253906 235.851562 251.988281 235.570312 250.683594 C 235.292969 249.378906 235.121094 248.046875 235.039062 246.71875 Z M 212.167969 258.589844 C 213.015625 260.105469 213.042969 261.625 212.894531 263.316406 C 212.851562 263.835938 213.710938 263.996094 213.902344 263.53125 C 214.644531 261.761719 214.210938 259.808594 213.195312 258.230469 C 212.902344 257.777344 211.863281 258.042969 212.167969 258.589844 Z M 176.328125 258.160156 C 175.738281 258.046875 175.328125 258.859375 175.980469 259.097656 C 177.9375 259.800781 179.003906 261.429688 179.851562 263.226562 C 180.15625 263.871094 181.382812 263.535156 181.308594 262.820312 C 181.035156 260.300781 178.65625 258.617188 176.328125 258.160156 Z M 231.285156 125.921875 C 232.414062 124.203125 233.449219 122.527344 235.292969 121.480469 C 237.496094 120.230469 239.761719 120.480469 242.132812 120.925781 C 242.617188 121.019531 243.210938 120.476562 242.65625 120.109375 C 238.207031 117.199219 231.375 120.824219 230.332031 125.777344 C 230.210938 126.339844 231.082031 126.230469 231.285156 125.921875 Z M 209.84375 135.664062 C 209.488281 136.882812 210.867188 137.78125 211.878906 138.171875 C 213.179688 138.671875 214.597656 138.585938 215.894531 138.097656 C 217.503906 137.492188 218.777344 136.339844 219.734375 134.9375 C 220.652344 136.5 222.082031 137.777344 223.785156 138.320312 C 225.914062 139.003906 228.917969 138.617188 229.933594 136.371094 C 230.058594 136.097656 229.699219 135.902344 229.472656 136.050781 C 227.488281 137.382812 225.226562 137.417969 223.320312 135.902344 C 222.25 135.054688 221.5625 133.9375 220.878906 132.808594 C 220.941406 132.667969 220.996094 132.523438 221.050781 132.382812 L 222.34375 131.757812 C 225.34375 130.304688 224.3125 125.796875 220.976562 125.796875 L 218.042969 125.796875 C 214.710938 125.796875 213.679688 130.304688 216.675781 131.757812 L 218.144531 132.464844 C 218.367188 132.574219 218.601562 132.652344 218.835938 132.707031 C 218.195312 133.898438 217.472656 135.039062 216.394531 135.875 C 215.1875 136.808594 213.796875 137.207031 212.328125 136.734375 C 211.496094 136.464844 210.933594 135.828125 210.113281 135.566406 C 210.019531 135.535156 209.878906 135.550781 209.84375 135.664062 Z M 205.871094 128.546875 C 207.65625 128.546875 209.105469 125.992188 209.105469 122.84375 C 209.105469 121.527344 208.847656 120.316406 208.425781 119.351562 C 209.242188 119.851562 209.828125 120.558594 210.535156 121.226562 C 210.820312 121.492188 211.589844 121.402344 211.515625 120.890625 C 211.03125 117.550781 205.976562 115.914062 203.429688 117.878906 C 202.980469 118.222656 203.183594 118.667969 203.589844 118.800781 C 203.003906 119.835938 202.640625 121.261719 202.640625 122.84375 C 202.640625 125.992188 204.085938 128.546875 205.871094 128.546875 Z M 172.910156 247.714844 C 166.46875 245.691406 153.488281 245.921875 152.542969 237.050781 C 152.503906 236.6875 151.898438 236.75 151.875 237.097656 C 151.355469 244.945312 161.347656 246.867188 167.078125 248.222656 C 170.691406 249.078125 174.371094 250.054688 177.40625 252.296875 C 180.609375 254.664062 182.589844 258.160156 183.957031 261.835938 C 184.28125 262.703125 185.808594 262.46875 185.710938 261.496094 C 185.019531 254.554688 179.234375 249.695312 172.910156 247.714844 Z M 225.925781 245.730469 C 224.640625 247.578125 223.691406 249.625 222.332031 251.4375 C 220.894531 253.34375 219.195312 254.992188 217.375 256.523438 C 217.296875 252.261719 216.855469 247.992188 216.742188 243.726562 C 216.609375 238.613281 216.582031 233.496094 216.664062 228.382812 C 216.734375 223.984375 216.730469 219.527344 217.113281 215.140625 C 217.257812 213.476562 217.496094 211.792969 218 210.195312 C 218.660156 208.105469 219.917969 206.632812 221.09375 204.839844 C 221.226562 204.640625 220.910156 204.503906 220.757812 204.597656 C 217.839844 206.386719 216.4375 210.15625 215.902344 213.378906 C 215.148438 217.882812 215.230469 222.589844 215.132812 227.144531 C 215.027344 231.988281 215.019531 236.832031 215.105469 241.675781 C 215.195312 246.941406 215.074219 252.363281 215.6875 257.59375 C 215.765625 258.234375 216.78125 258.269531 217.207031 257.871094 C 217.28125 257.859375 217.351562 257.839844 217.410156 257.804688 C 221.445312 255.378906 226.257812 250.832031 227.066406 245.957031 C 227.179688 245.289062 226.199219 245.332031 225.925781 245.730469 Z M 234.457031 212.507812 C 236.535156 207.949219 241.695312 204.945312 242.054688 199.625 C 242.078125 199.257812 241.417969 199.308594 241.328125 199.605469 C 239.644531 205.292969 233.730469 208.238281 231.933594 213.894531 C 230.976562 216.898438 230.957031 220.089844 231.058594 223.210938 C 231.117188 224.953125 231.203125 226.691406 231.273438 228.429688 C 231.351562 230.28125 231.238281 232.246094 231.648438 234.0625 C 231.84375 234.929688 233.367188 234.730469 233.46875 233.898438 C 233.917969 230.226562 233.183594 226.246094 233.0625 222.546875 C 232.953125 219.167969 233.027344 215.640625 234.457031 212.507812 Z M 194.671875 219.339844 C 194.167969 213.28125 194.21875 207.457031 191.519531 201.867188 C 190.046875 198.8125 188.355469 195.9375 187.382812 192.664062 C 186.457031 189.566406 186.042969 186.367188 186.023438 183.136719 C 186.019531 182.855469 185.46875 182.84375 185.433594 183.109375 C 184.675781 189.015625 185.953125 194.582031 188.539062 199.890625 C 190.035156 202.953125 191.421875 205.890625 191.972656 209.289062 C 192.484375 212.5 192.503906 215.765625 192.753906 219 C 193.738281 231.851562 196.6875 245 201.953125 256.800781 C 202.320312 257.628906 204.191406 257.050781 203.839844 256.167969 C 199.09375 244.25 195.738281 232.167969 194.671875 219.339844 Z M 137.574219 255.101562 C 137.8125 255.699219 136.886719 256 136.511719 255.617188 C 132.828125 251.851562 130.730469 245.003906 131.15625 239.824219 C 131.203125 239.261719 132.167969 239.316406 132.289062 239.804688 C 132.945312 242.457031 133.410156 245.144531 134.292969 247.742188 C 135.167969 250.3125 136.570312 252.597656 137.574219 255.101562 " fill-opacity="1" fill-rule="nonzero"/></g><g clip-path="url(#b4a27a87db)"><g clip-path="url(#b480c04f85)"><g clip-path="url(#b8c1b1ab7c)"><path fill="#000000" d="M 107.386719 72.242188 L 269.574219 193.996094 L 205.546875 219.578125 L 272.703125 325.457031 L 111.484375 200.753906 L 175.753906 175.492188 Z M 107.386719 72.242188 " fill-opacity="1" fill-rule="nonzero"/></g></g></g><g clip-path="url(#3b6b994273)"><g clip-path="url(#da235791c9)"><g clip-path="url(#d2770365ce)"><path fill="#f8b214" d="M 112.769531 80.355469 L 264.519531 194.269531 L 204.613281 218.207031 L 267.445312 317.273438 L 116.605469 200.59375 L 176.738281 176.957031 Z M 112.769531 80.355469 " fill-opacity="1" fill-rule="nonzero"/></g></g></g><g clip-path="url(#ba1b3ac816)"><path fill="#000000" d="M 330.578125 96.730469 C 321.296875 98.4375 319.914062 99.824219 318.203125 109.105469 C 316.496094 99.824219 315.109375 98.4375 305.832031 96.730469 C 315.109375 95.023438 316.496094 93.636719 318.203125 84.355469 C 319.914062 93.636719 321.296875 95.023438 330.578125 96.730469 Z M 330.578125 96.730469 " fill-opacity="1" fill-rule="nonzero"/></g></svg>